<?xml version="1.0" encoding="UTF-8"?>
<svg id="_レイヤー_1" data-name="レイヤー 1" xmlns="http://www.w3.org/2000/svg" viewBox="0 0 99.13 86.71">
  <defs>
    <style>
      .cls-1 {
        fill: #fff;
      }
    </style>
  </defs>
  <path class="cls-1" d="M47.23,86.71c-12.9,0-25.41-6.33-35.67-17.93l-4.7,9.17c-1.11,2.16-3.41,2.8-5.14,1.41-1.73-1.38-2.24-4.26-1.13-6.42l7.16-13.98c.62-1.2,1.64-1.99,2.78-2.12,1.14-.13,2.26.39,3.05,1.42,9.41,12.35,21.36,22.51,33.65,22.51s24.25-10.15,33.65-22.51c.79-1.03,1.91-1.55,3.05-1.42,1.14.14,2.16.92,2.78,2.12l7.16,13.98c1.11,2.16.6,5.04-1.13,6.42-1.73,1.38-4.03.75-5.14-1.41l-4.7-9.17c-10.26,11.61-22.77,17.93-35.67,17.93Z"/>
  <path class="cls-1" d="M39.84,4.7c-11.42,1.03-28.04,13.99-26.37,36.76,1.94,26.43,28.8,40.29,33.94,29.52.07-.15.08-.32.12-.47.88-3.43-1.17-6.81-4.54-7.92-3.76-1.25-6.66-3.97-7.79-8.03-2.16-7.77,2.93-17.49,11.72-20.43.03,0,.05-.02.08-.03,5.68-1.86,9.96-6.56,10.78-12.48.02-.18.05-.35.07-.53,1.67-12.61-8.43-17.23-18.02-16.37ZM29.43,33.33c-.31,2.04-2.21,3.44-4.24,3.14-2.04-.31-3.44-2.21-3.14-4.24s2.21-3.44,4.24-3.14c2.04.31,3.44,2.21,3.14,4.24ZM32.66,21.62c-.39,2.63-2.85,4.44-5.48,4.05-2.63-.39-4.44-2.85-4.05-5.48.39-2.63,2.85-4.44,5.48-4.05,2.63.39,4.44,2.85,4.05,5.48ZM47.16,17.33c-.48,3.19-3.45,5.39-6.65,4.91s-5.39-3.45-4.91-6.65c.48-3.19,3.45-5.39,6.65-4.91s5.39,3.45,4.91,6.65Z"/>
  <path class="cls-1" d="M96.5,11.28c6.98-12.7-1.68-12.18-6.01-10.23s-21.01,6.35-21.01,6.35v27.13c-3.45-1.43-7.49-1.72-11.46-.4-8.8,2.93-13.89,12.66-11.72,20.43,2.16,7.77,10.75,10.63,19.55,7.7,7.79-2.6,13.11-8.87,12.74-15.66v-13.72c4.21,1.8,9.29,2.54,13.47-1.11,8.9-7.76,2.13-9.79-1.73-9.51-2.15.15-7.47-.19-11.75-.52v-3.78c6.24.89,14.06.33,17.91-6.68Z"/>
</svg>