<?xml version="1.0" encoding="UTF-8"?>
<svg id="_レイヤー_1" data-name="レイヤー 1" xmlns="http://www.w3.org/2000/svg" viewBox="0 0 717.73 247.44">
  <defs>
    <style>
      .cls-1 {
        fill: #ffee56;
      }
    </style>
  </defs>
  <path class="cls-1" d="M360.81,244.55c-77.27,2-157.21,3.12-234.43,2.85-6.62-.13-14.3-.36-20.9-1.08-33.13-3.14-68.2-15.03-89.2-42.32-22.76-29.19-21.52-70.5,2.99-98.28,16.77-19.03,42.02-28.21,66.99-27.35,30.95.87,59.97,14.63,84.89,31.51,2.07,1.45,6.47,4.63,8.41,6.01,1.62,1.23,6.45,4.99,8.16,6.3,13.95,11.17,26.64,23.94,40.53,35.03,11.83,9.28,32.61,25.98,47.62,25.91,9.01-.48,11.43-10.67,13.29-18.28,2.61-12.66,2.95-25.67,3.56-38.78,1.27-26.87,1.36-55.22,10.5-81.39,6.79-19.42,20.34-35.53,40.8-41.05,18.74-4.72,38.66-5.15,57.31.71,52.2,16.68,73.85,74.63,129.06,91.08,15.92,5.07,32.89,5.9,49.51,5.25,35.55-.32,105.77.73,130.64,28.16,10.24,11.51,9.1,26.84-.5,38.46-8.16,10.07-19.14,16.84-30.22,22.73-32.88,16.66-68.86,25.65-104.62,33.01-70.66,13.95-142.59,19.2-214.39,21.54h0ZM360.2,225.85c70.6-2.56,141.67-8.8,210.77-23.3,25.67-5.54,51.03-12.11,75.42-21.51,11.84-4.65,23.3-9.81,33.74-16.72,5.74-3.79,11.85-8.78,14.63-14.28,2.22-4.08-1.06-6.98-4.24-9.46-9.37-6.55-21.55-9.62-32.86-12.07-25.01-5.02-51.73-6.03-77.54-6-16.54.45-33.25-.49-49.26-4.97-20.88-5.58-40.16-17.03-56.08-31.3-19.9-17.26-36.68-40.16-57.14-55.12-16.55-12.49-37.17-17.5-57.69-15.19-16.61,1.08-30.17,7.81-38.55,22.51-6.25,10.86-9.22,23.06-11.25,35.61-2.74,17.28-3.16,34.96-3.9,52.57-.37,8.94-.76,17.95-1.69,27.12-1.07,9.69-2.3,19.06-6.7,28.28-9.2,18.73-27.46,17.46-43.87,9.46-20.81-10.2-38.37-25.3-55.74-40.2-8.21-7.23-16.56-14.32-25.37-20.72-18.74-13.8-40.22-25.72-62.52-31.36-31.35-8.23-66.66-1.59-83.75,28.18-13.77,24.33-8.29,53.47,11.8,72.48,15.33,14.44,35.79,21.82,56.41,25.37,8.2,1.4,17.04,2.26,25.31,2.54,79.01.83,161.02-.24,240.08-1.91h0Z"/>
</svg>