<?xml version="1.0" encoding="UTF-8"?>
<svg id="_レイヤー_1" data-name="レイヤー 1" xmlns="http://www.w3.org/2000/svg" viewBox="0 0 47.54 57.57">
  <defs>
    <style>
      .cls-1 {
        fill: #2d2d2d;
      }
    </style>
  </defs>
  <path class="cls-1" d="M27.64,36.26c-.08-.03-.17-.05-.25-.08-2.77-.83-5.7.11-7.67,2.24,0,.01-.02.02-.03.03-3.06,3.29-8.37,3.57-11.36,1.06-1.56-1.31-2.18-3.14-1.97-5.04.18-1.71-.89-3.29-2.58-3.59-.08-.01-.15-.04-.23-.04-5.78.1-5.06,14.72,6.19,20.88,9.7,5.31,18.75.59,21.49-4.24,2.31-4.05,2.3-9.43-3.59-11.23ZM17.77,48.56c-.27.96-1.28,1.51-2.23,1.24s-1.51-1.28-1.24-2.23c.27-.96,1.28-1.51,2.23-1.24.96.27,1.51,1.28,1.24,2.23ZM23.94,50.14c-.35,1.24-1.65,1.96-2.88,1.6-1.24-.35-1.96-1.65-1.6-2.88.35-1.24,1.65-1.96,2.88-1.6s1.96,1.65,1.6,2.88ZM29.09,45.23c-.43,1.5-2,2.37-3.5,1.94-1.5-.43-2.37-2-1.94-3.5s2-2.37,3.5-1.94c1.5.43,2.37,2,1.94,3.5Z"/>
  <path class="cls-1" d="M10.69,44.72c-1.06,0-1.94-.83-2-1.89-.06-1.1.78-2.03,1.87-2.1.53-.05,2.24-.38,2.39-2.72.26-4.23-1.01-12.09-5.56-15.19-3.88-2.64-7.89-5.37-5.44-10.1.78-1.51,2.45-2.31,4.56-2.2,5.41.28,13.22,5.87,17.05,15.66.4,1.03-.1,2.19-1.13,2.59-1.03.4-2.19-.1-2.59-1.13-2.82-7.21-8.1-11.64-12.09-12.85-1.48-.45-2.2-.25-2.31-.17-.47.95-.76,1.51,4.19,4.89,6.43,4.38,7.59,14.18,7.3,18.75-.3,4.87-4.15,6.36-6.14,6.46-.04,0-.07,0-.11,0Z"/>
  <path class="cls-1" d="M27.67,25.08c-.89,0-1.7-.6-1.93-1.5-.03-.12-2.76-10.14-12.26-14-3.55-1.44-3.97-.87-4.41-.26-.12.34.32,1.61.87,2.44.61.92.35,2.16-.57,2.77-.92.61-2.16.35-2.77-.57-.46-.7-2.67-4.34-.77-6.98,2.23-3.1,5.28-2.68,9.16-1.1,11.41,4.64,14.5,16.21,14.62,16.71.27,1.07-.37,2.16-1.44,2.43-.17.04-.33.06-.5.06Z"/>
  <path class="cls-1" d="M33.14,20.7c-.82,0-1.6-.51-1.89-1.33-.06-.16-2.96-8.09-9.58-12.59-3.91-2.65-5.7-3.28-6.85-2.39-.36.28-.51,1.56-.39,2.44.15,1.09-.62,2.1-1.71,2.25-1.09.15-2.1-.6-2.25-1.69-.06-.43-.54-4.28,1.91-6.17,3.85-2.97,8.48.17,11.54,2.25,7.77,5.27,10.98,14.19,11.11,14.57.37,1.04-.18,2.18-1.22,2.55-.22.08-.44.11-.66.11Z"/>
  <path class="cls-1" d="M24.98,57.57c-12.21,0-20.51-8.96-21.82-11.86-.46-1.01,0-2.19,1-2.65,1-.45,2.19,0,2.65,1,.69,1.51,9.38,11.95,22.87,8.99,11.42-2.51,15.63-10.74,13.24-25.9-2.05-13.01-10.46-19.66-13.31-19.99-1.03-.12-1.52.04-1.63.15-.04.03-.05.15-.05.19l-1.99.16-1.99.23c-.11-.91.14-2.35,1.2-3.4,1.11-1.11,2.77-1.55,4.93-1.3,5.58.65,14.67,9.84,16.8,23.34,2.71,17.21-2.78,27.45-16.33,30.43-1.93.42-3.78.61-5.55.61Z"/>
</svg>