<?xml version="1.0" encoding="UTF-8"?>
<svg id="_レイヤー_1" data-name="レイヤー 1" xmlns="http://www.w3.org/2000/svg" viewBox="0 0 36.71 56.83">
  <defs>
    <style>
      .cls-1 {
        fill: #2d2d2d;
      }
    </style>
  </defs>
  <path class="cls-1" d="M12.45,17.23c-1.24-6.92,2.66-5.34,4.35-3.77s8.67,6.17,8.67,6.17l-.09.27-1.17,3.47-2.94,8.73c1.8-.12,3.71.37,5.33,1.59,3.59,2.71,4.42,7.97,2.22,11.2-2.2,3.23-6.59,3.22-10.18.51-3.18-2.4-4.65-6.11-3.43-9.17l2.12-6.3c-2.21.18-4.66-.27-6.02-2.6-2.89-4.94.54-4.83,2.27-4.1.97.4,3.46,1.07,5.48,1.58l.59-1.74c-3.01-.56-6.51-2.03-7.2-5.84Z"/>
  <path class="cls-1" d="M24.77,56.83c-1.57,0-3.27-.16-5.09-.56-8.98-1.97-10.95-9.8-12.38-15.52-.24-.94-.46-1.84-.71-2.66-.76-2.55-1.64-4.38-2.57-6.32-1-2.08-2.03-4.22-2.99-7.36C-.82,18.42-.15,12.08,2.81,7.46,5.39,3.41,9.53.9,14.77.2c12.3-1.65,18.35,7.37,19.83,12.37.31,1.06-.29,2.17-1.35,2.49-1.06.31-2.17-.29-2.48-1.34-.14-.46-3.52-11.15-15.46-9.54-4.09.55-7.16,2.38-9.12,5.45-2.33,3.65-2.83,8.74-1.32,13.62.88,2.85,1.84,4.86,2.78,6.81.96,2,1.95,4.06,2.8,6.91.26.87.5,1.83.75,2.83,1.38,5.48,2.8,11.15,9.36,12.59,7.77,1.71,12.79-1.76,13-1.91.9-.64,2.15-.43,2.79.47.64.9.44,2.14-.45,2.78-.22.16-4.42,3.13-11.11,3.13Z"/>
</svg>