<?xml version="1.0" encoding="UTF-8"?>
<svg id="_レイヤー_1" data-name="レイヤー 1" xmlns="http://www.w3.org/2000/svg" viewBox="0 0 301.18 425.07">
  <defs>
    <style>
      .cls-1 {
        fill: #78bb8a;
      }
    </style>
  </defs>
  <path class="cls-1" d="M11.59,206.81C-.18,147.92-18.29,43.28,46.81,9.56,61.46,2.06,78.44-.34,94.63.04c72.48,1.67,134.1,52.58,171.26,111.56,22.55,35.44,49.52,97.9,26.51,138.03-2.45,3.99-5.51,7.8-9.07,10.89-3.43,3.02-7.51,5.95-12.78,7.81-29.19,9.48-45.83-28.92-55.66-49.69-12.47-25.84-29.91-80.17-52.41-94.95-2.11-1.33-4.2-2.27-6.58-2.75-3.62-.68-7.5-.97-10.85-.8-9.5.41-13.03,5.24-13.19,14.72-.03,10.4,2.91,20.64,6.14,30.81,7.06,21.27,16.68,41.57,26.34,61.94,16.41,34.41,34.34,68.23,48.65,103.73,7.84,20.55,20.27,51.86,11.72,73.47-2.5,6.42-8.23,12.28-14.59,14.92,0,0-1.56.74-1.56.74l-1.61.64c-22.93,9.3-48.12.89-67.66-11.65-59.14-38.51-114.67-133.8-127.7-202.66h0ZM22.84,204.8c11.85,65.79,47.15,128.4,98.15,171.63,13.83,11.32,29.09,21.42,46.12,26.71,10.98,3.37,23.16,4.19,33.5-.57,0,0,1-.51,1-.51,5.12-2.06,6.03-6.86,6.24-12.45.08-10.17-2.73-20.17-5.75-30.25-14.08-42.66-35.42-83.17-53.71-124.34-9.44-21.01-18.78-42.32-25.78-64.46-3.5-11.51-6.67-23.66-6.41-36.13.25-17.13,10.22-29.04,28.02-29.73,15.67-.47,25.94,3.14,36.66,14.4,8.41,8.87,14.76,19.5,20.41,29.97,14.5,26.67,24.72,55.56,39.85,81.53,4.23,6.87,14.26,23.52,23.28,20,17.87-8.25,19.41-31.56,17.63-49.12C270.62,113.61,186.85,16.86,94.29,14.95c-20.61-.66-42.53,4.23-56.9,19.85C1.86,73.16,15.55,156.41,22.84,204.8h0Z"/>
</svg>