<?xml version="1.0" encoding="UTF-8"?>
<svg id="_レイヤー_1" data-name="レイヤー 1" xmlns="http://www.w3.org/2000/svg" viewBox="0 0 67.58 61.7">
  <defs>
    <style>
      .cls-1 {
        fill: #2d2d2d;
      }
    </style>
  </defs>
  <path class="cls-1" d="M2.89,24.61c-1.5-2.2-2.14-.74-2.18.13s-.71,3.98-.71,3.98l.1.05,1.24.63,3.12,1.58c-.52.45-.91,1.09-1.02,1.85-.25,1.69.92,3.33,2.38,3.63,1.46.29,2.64-.88,2.89-2.57.22-1.49-.36-2.89-1.51-3.4l-2.25-1.14c.65-.54,1.19-1.31.94-2.3-.53-2.11-1.43-1.16-1.71-.51-.15.37-.65,1.21-1.06,1.89l-.62-.31c.67-.95,1.22-2.28.39-3.5Z"/>
  <path class="cls-1" d="M30.07,61.7c-1.42,0-2.9-.35-4.33-1.06-2.26-1.12-3.61-3.52-5.03-6.07-.62-1.11-1.27-2.26-1.97-3.25-1.9-2.68-4.1-5.04-5.71-6.76-.9-.97-1.61-1.73-2.08-2.34h0c-1.42-1.84-1.98-3.8-1.65-5.82.48-2.91,2.75-5.67,6.94-8.44,3.79-2.51,7.02-3.22,9.58-2.1,2.03.89,3.44,2.9,3.86,5.52.24,1.52-.17,3.08-.61,4.73-.68,2.56-1.32,4.99.23,7.35,1.07,1.64,2.09,2.06,3.38,2.6,1.5.63,3.36,1.4,4.6,4.1,1.5,3.26.9,6.9-1.54,9.27-1.55,1.51-3.54,2.28-5.65,2.28ZM14.1,39.76c.36.47,1.05,1.2,1.85,2.06,1.69,1.81,3.99,4.28,6.05,7.18.83,1.17,1.52,2.41,2.2,3.61,1.07,1.91,2.17,3.88,3.32,4.44,2.39,1.19,4.37.52,5.42-.5.96-.93,1.65-2.67.7-4.72-.59-1.28-1.23-1.55-2.51-2.08-1.45-.61-3.43-1.43-5.18-4.09-2.53-3.86-1.51-7.74-.76-10.57.33-1.23.63-2.39.52-3.08-.07-.46-.4-2-1.51-2.48-1.2-.53-3.25.1-5.76,1.77-3.94,2.61-5,4.58-5.2,5.76-.09.57-.11,1.47.86,2.72h0Z"/>
  <path class="cls-1" d="M23.28,24.26c-.49,0-.99-.08-1.47-.24-1.16-.39-2.09-1.21-2.63-2.3-.54-1.09-.62-2.33-.23-3.49.46-1.38,1.53-2.44,2.96-2.9,1.87-.6,3.99.11,5.11,1.72.85,1.23,1.06,2.72.59,4.1-.39,1.16-1.21,2.09-2.3,2.63-.64.32-1.33.48-2.02.48ZM23.27,17.94c-.26,0-.52.06-.77.18-.42.21-.73.56-.88,1-.15.44-.12.91.09,1.33.21.42.56.73,1,.88s.91.12,1.33-.09c.42-.21.73-.56.88-1,.15-.44.12-.91-.09-1.33-.3-.61-.92-.97-1.56-.97Z"/>
  <path class="cls-1" d="M14.69,26.24c-1.38,0-2.71-.89-3.14-2.37-.37-1.28.12-2.7,1.19-3.48.89-.65,1.98-.81,2.98-.47.82.28,1.49.86,1.87,1.64h0c.38.78.44,1.66.17,2.48-.28.82-.86,1.49-1.64,1.87-.46.23-.95.34-1.43.34Z"/>
  <path class="cls-1" d="M9.28,30.37c-1.31,0-2.57-.88-2.9-2.34-.26-1.13.18-2.29,1.1-2.99,1.53-1.15,3.64-.58,4.45,1.05h0c.72,1.46.12,3.25-1.34,3.97-.42.21-.87.31-1.31.31Z"/>
  <path class="cls-1" d="M64.69,9.5c1.5-2.2,2.14-.74,2.18.13s.71,3.98.71,3.98l-.1.05-1.24.63-3.12,1.58c.52.45.91,1.09,1.02,1.85.25,1.69-.92,3.33-2.38,3.63-1.46.29-2.64-.88-2.89-2.57-.22-1.49.36-2.89,1.51-3.4l2.25-1.14c-.65-.54-1.19-1.31-.94-2.3.53-2.11,1.43-1.16,1.71-.51.15.37.65,1.21,1.06,1.89l.62-.31c-.67-.95-1.22-2.28-.39-3.5Z"/>
  <path class="cls-1" d="M37.5,46.58c-2.11,0-4.1-.77-5.65-2.28-2.44-2.37-3.04-6.01-1.54-9.27,1.24-2.69,3.11-3.47,4.6-4.1,1.29-.54,2.3-.96,3.38-2.6,1.55-2.37.91-4.79.23-7.35-.44-1.65-.85-3.21-.61-4.73.42-2.61,1.82-4.62,3.86-5.52,2.56-1.12,5.78-.42,9.58,2.1,4.19,2.78,6.46,5.54,6.94,8.44.33,2.02-.22,3.98-1.65,5.82h0c-.47.61-1.18,1.37-2.09,2.34-1.61,1.73-3.81,4.09-5.71,6.76-.7.99-1.35,2.14-1.97,3.25-1.43,2.55-2.78,4.96-5.03,6.07-1.43.71-2.91,1.06-4.33,1.06ZM44.34,14.22c-.36,0-.69.06-.96.18-1.11.49-1.44,2.02-1.51,2.48-.11.69.2,1.85.52,3.08.75,2.83,1.78,6.71-.76,10.57-1.75,2.66-3.73,3.49-5.18,4.09-1.28.53-1.92.8-2.51,2.08-.95,2.06-.26,3.79.7,4.73,1.05,1.02,3.02,1.69,5.42.5,1.15-.57,2.25-2.54,3.32-4.44.67-1.2,1.37-2.44,2.2-3.61,2.05-2.89,4.36-5.37,6.05-7.17.8-.86,1.49-1.6,1.85-2.06h0c.97-1.25.96-2.15.86-2.72-.2-1.19-1.26-3.15-5.2-5.76-1.93-1.28-3.59-1.95-4.8-1.95Z"/>
  <path class="cls-1" d="M44.3,9.14c-.69,0-1.38-.16-2.02-.48-1.09-.54-1.91-1.48-2.3-2.63-.39-1.16-.31-2.4.23-3.49.54-1.09,1.48-1.91,2.63-2.3,1.16-.39,2.4-.31,3.49.23,1.09.54,1.91,1.48,2.3,2.63.39,1.16.31,2.4-.23,3.49-.54,1.09-1.48,1.91-2.63,2.3-.48.16-.97.24-1.47.24ZM44.3,2.83c-.19,0-.38.03-.56.09-.44.15-.8.46-1,.88-.21.42-.24.89-.09,1.33.15.44.46.8.88,1,.42.21.89.24,1.33.09.44-.15.8-.46,1-.88.21-.42.24-.89.09-1.33s-.46-.8-.88-1c-.24-.12-.51-.18-.77-.18Z"/>
  <path class="cls-1" d="M52.89,11.13c-.49,0-.98-.11-1.44-.34-.78-.38-1.36-1.05-1.64-1.87-.28-.82-.22-1.7.17-2.48s1.05-1.36,1.87-1.64c.82-.28,1.7-.22,2.48.17.78.38,1.36,1.05,1.64,1.87s.22,1.7-.17,2.48-1.05,1.36-1.87,1.64c-.34.12-.69.17-1.04.17Z"/>
  <path class="cls-1" d="M58.3,15.25c-.66,0-1.33-.22-1.91-.7-.81-.67-1.21-1.77-1-2.8.44-2.18,2.9-3.11,4.65-1.87,1.01.71,1.47,2.03,1.12,3.21-.39,1.35-1.6,2.16-2.86,2.16Z"/>
</svg>