<?xml version="1.0" encoding="UTF-8"?>
<svg id="_レイヤー_1" data-name="レイヤー 1" xmlns="http://www.w3.org/2000/svg" viewBox="0 0 210.42 361.04">
  <defs>
    <style>
      .cls-1 {
        fill: #5ce7ff;
      }
    </style>
  </defs>
  <path class="cls-1" d="M12.29,129.82c2.69,62.5,18.45,164.41,74.37,200.9,15.86,10.37,35.29,13.48,53.87,10.87,2.23-.34,5.5-.84,7.69-1.38,36.09-9.89,46.82-65.69,44.25-98.29-.81-9.34-3.21-26.32-11.2-31.7-3.55-1.85-7.76,1.44-10.61,3.71-1.56,1.3-4.05,3.45-5.68,4.74-9.28,7.55-23.9,16.91-32.66,3.13-3.61-6.57-3.94-13.6-4.59-20.58-.69-9.84-.9-19.28-1.4-28.74-2.06-46.61-10.95-93.69-32.54-135.37C70.15-5.02,35.84,4.84,20.67,47.21c-9.33,26.32-10.19,54.93-8.38,82.61h0ZM.35,130.34C-1.26,93.38,1.87,47.32,25.93,17.38,36.31,4.66,52.3-3.49,68.88,1.47c16.53,4.83,28.28,19.31,35.95,33.69,21.58,42.18,32.04,89.47,35.3,136.46.76,9.56,1.25,19.18,2.15,28.34.44,4.08.95,8.75,2.16,12.38.26.81.57,1.38.77,1.73.21.35.23.16-.16-.08-.28-.17-.63-.27-.88-.32-.04.03.07-.03.13-.03.08-.03.1.01.24-.06,5.12-1.94,10.13-6.61,14.4-10.32,11.52-11.09,26.47-14.3,37.81-.97,18.34,23.23,15.49,71.12,7.32,98.12-8.71,29.68-27.84,56.93-61.18,59.84-12.32,1.42-24.91,1.01-37.03-1.93-30.89-7.25-54.29-31.27-68.85-58.39C10.23,250.11,1.7,186.21.35,130.34H.35Z"/>
</svg>