<?xml version="1.0" encoding="UTF-8"?>
<svg id="_レイヤー_1" data-name="レイヤー 1" xmlns="http://www.w3.org/2000/svg" viewBox="0 0 584.47 329.58">
  <defs>
    <style>
      .cls-1 {
        fill: #ffa2a2;
      }
    </style>
  </defs>
  <path class="cls-1" d="M50.05,20.63c86.34-43.08,364.45-10.94,455.78,25.85,8.84,3.66,17.28,7.55,24.92,13.65,3.09,2.7,6.49,5.54,9.42,8.42,82.7,78.89,41.51,202.41-56.66,245.08-24.9,10.95-52.16,16.22-79.32,15.94-19.83,0-51.58-2.55-46.84-30.83.91-5.01,2.8-9.71,4.96-14.27,5.71-11.89,13.3-23.18,19-34.54,4.94-10.23,11.48-24.16,3.49-34.01-13.85-15.66-53.36-17.94-73.83-19.04-16.81-.65-34.03-.77-50.56,1.46-9.55,1.4-23.19,3.98-29.45,11.39-3.75,4.98-2.89,10.58-1.37,16.83,3.3,12.74,10.75,24.59,12.99,38.02,2.04,11.59-3.39,21.9-14.72,25.81-7.22,2.66-15.68,2.96-22.94,2.8-73.91-1.56-148.29-65.09-183.72-126.64C-9.57,112.22-12.3,52.58,50.05,20.63h0ZM56.61,33.13C25.85,49.46,12.13,77.68,18.76,111.98c14.21,73.21,110.86,161.41,186.62,162.1,4.94.08,9.39.03,13.77-.99,1.15-.19,3.85-1.23,4.3-1.78,2.53-4.12-5.68-21.19-7.55-26.61-1.63-4.22-3.24-8.65-4.47-13.49-4.5-16.53-.8-32.34,14.95-41.49,22.94-13.14,59.81-11.66,85.44-10.6,26.58,1.89,72.62,4.69,88.52,29.78,14.09,23.83-6.38,51.28-17.87,71.45-3.91,6.91-8.1,13.58-9.83,21.23-.42,2.56-.62,4.42.72,6.26,3.44,4.06,12.57,5.55,18.55,6.16,12.46,1.08,25.15.96,37.59-.46,49.96-5.35,97.57-33.61,123.5-77.03,32.37-52.99,25.47-117.52-19.92-160.64-2.72-2.72-5.91-5.43-8.81-7.98-6.43-5.18-14.53-8.94-22.26-12.12C412.64,19.41,141.89-9.03,56.61,33.13h0Z"/>
</svg>