<?xml version="1.0" encoding="UTF-8"?>
<svg id="_レイヤー_1" data-name="レイヤー 1" xmlns="http://www.w3.org/2000/svg" viewBox="0 0 55.47 51.97">
  <defs>
    <style>
      .cls-1 {
        fill: #2d2d2d;
      }
    </style>
  </defs>
  <path class="cls-1" d="M28.02,45.4c-2.04,0-4.04-.35-5.95-1.06l1.38-3.75c1.46.54,2.99.81,4.57.81,7.29,0,13.22-5.93,13.22-13.22s-5.93-13.22-13.22-13.22v-4c9.5,0,17.22,7.73,17.22,17.22s-7.73,17.22-17.22,17.22Z"/>
  <path class="cls-1" d="M23.88,10.59c-5.76.52-14.13,7.05-13.29,18.52.98,13.31,14.51,20.3,17.1,14.87.04-.08.04-.16.06-.24.44-1.73-.59-3.43-2.28-3.99-1.9-.63-3.35-2-3.92-4.05-1.09-3.91,1.47-8.81,5.91-10.29.01,0,.03,0,.04-.01,2.86-.94,5.02-3.31,5.43-6.29.01-.09.02-.18.04-.27.84-6.35-4.25-8.68-9.08-8.25ZM18.64,25.02c-.15,1.03-1.11,1.73-2.14,1.58-1.03-.15-1.73-1.11-1.58-2.14s1.11-1.73,2.14-1.58c1.03.15,1.73,1.11,1.58,2.14ZM20.27,19.11c-.2,1.33-1.43,2.24-2.76,2.04-1.33-.2-2.24-1.43-2.04-2.76.2-1.33,1.43-2.24,2.76-2.04,1.33.2,2.24,1.43,2.04,2.76ZM27.57,16.95c-.24,1.61-1.74,2.72-3.35,2.48s-2.72-1.74-2.48-3.35c.24-1.61,1.74-2.72,3.35-2.48s2.72,1.74,2.48,3.35Z"/>
  <g>
    <path class="cls-1" d="M27.73,51.97c-13.73,0-25.78-11.11-25.78-23.78S13.99,4.4,27.73,4.4s25.78,11.11,25.78,23.78-12.05,23.78-25.78,23.78ZM27.73,8.4c-11.4,0-21.78,9.43-21.78,19.78s10.38,19.78,21.78,19.78,21.78-9.43,21.78-19.78-10.38-19.78-21.78-19.78Z"/>
    <path class="cls-1" d="M33.72.54l-5.21,5.3,10.16,2.63-1.99-7.16c-.36-1.31-2.01-1.74-2.97-.77Z"/>
    <path class="cls-1" d="M18.82,1.29l-2,7.16,10.17-2.61L21.79.53c-.95-.97-2.6-.55-2.97.76Z"/>
    <path class="cls-1" d="M54.49,19.87l-5.08-1.05,2.3,6.96,3.45-3.87c.63-.71.26-1.84-.67-2.03Z"/>
    <path class="cls-1" d="M46.55,7.65l-5.96,2.05,6.71,5.84,1.21-6.18c.22-1.13-.87-2.08-1.96-1.71Z"/>
    <path class="cls-1" d="M6.98,9.32l1.2,6.19,6.72-5.83-5.96-2.06c-1.09-.38-2.18.57-1.96,1.7Z"/>
    <path class="cls-1" d="M.31,21.86l3.44,3.88,2.32-6.95-5.08,1.04c-.93.19-1.31,1.32-.68,2.03Z"/>
  </g>
</svg>